<?xml version="1.0" standalone="no"?>
<!DOCTYPE svg PUBLIC "-//W3C//DTD SVG 20010904//EN"
 "http://www.w3.org/TR/2001/REC-SVG-20010904/DTD/svg10.dtd">
<svg version="1.0" xmlns="http://www.w3.org/2000/svg"
 width="107.000000pt" height="107.000000pt" viewBox="0 0 107.000000 107.000000"
 preserveAspectRatio="xMidYMid meet">
<metadata>
Created by potrace 1.14, written by Peter Selinger 2001-2017
</metadata>
<g transform="translate(0.000000,107.000000) scale(0.100000,-0.100000)"
fill="#000000" stroke="none">
<path d="M405 1054 c-174 -37 -292 -129 -334 -260 -32 -103 -33 -109 -36 -241
-2 -79 1 -141 10 -173 7 -27 11 -50 9 -50 -2 0 6 -26 17 -57 38 -102 89 -157
194 -208 95 -46 199 -66 327 -61 302 10 500 165 418 325 -53 105 -225 181
-417 184 -76 2 -83 4 -83 22 0 18 7 20 83 22 292 5 501 169 416 327 -37 69
-131 131 -249 161 -88 23 -266 28 -355 9z"/>
</g>
</svg>
